<svg width="100" height="100" viewBox="0 0 100 100" fill="none" xmlns="http://www.w3.org/2000/svg">
<path d="M69.1683 58.3334C68.335 57.9167 62.9183 55.4167 62.085 55C61.2516 54.5834 60.4183 54.5834 59.585 55.4167C58.7516 56.25 57.085 58.75 56.2516 59.5834C55.835 60.4167 55.0016 60.4167 54.1683 60C51.2516 58.75 48.335 57.0834 45.835 55C43.7516 52.9167 41.6683 50.4167 40.0016 47.9167C39.585 47.0834 40.0016 46.25 40.4183 45.8334C40.835 45.4167 41.2516 44.5834 42.085 44.1667C42.5016 43.75 42.9183 42.9167 42.9183 42.5C43.335 42.0834 43.335 41.2501 42.9183 40.8334C42.5016 40.4167 40.4183 35.4167 39.585 33.3334C39.1683 30.4167 38.335 30.4167 37.5016 30.4167C37.085 30.4167 36.2516 30.4167 35.4183 30.4167C34.585 30.4167 33.335 31.25 32.9183 31.6667C30.4183 34.1667 29.1683 37.0834 29.1683 40.4167C29.585 44.1667 30.835 47.9167 33.335 51.25C37.9183 57.9167 43.7516 63.3334 50.835 66.6667C52.9183 67.5 54.585 68.3334 56.6683 68.75C58.7516 69.5834 60.835 69.5834 63.335 69.1667C66.2516 68.75 68.7516 66.6667 70.4183 64.1667C71.2516 62.5 71.2516 60.8334 70.835 59.1667C70.835 59.1667 70.0016 58.75 69.1683 58.3334ZM79.585 20.4167C63.335 4.16672 37.085 4.16672 20.835 20.4167C7.50163 33.7501 5.00163 54.1667 14.1683 70.4167L8.33496 91.6667L30.4183 85.8334C36.6683 89.1667 43.335 90.8334 50.0016 90.8334C72.9183 90.8334 91.2516 72.5 91.2516 49.5834C91.6683 38.75 87.085 28.3334 79.585 20.4167ZM68.335 78.75C62.9183 82.0834 56.6683 84.1667 50.0016 84.1667C43.7516 84.1667 37.9183 82.5 32.5016 79.5834L31.2516 78.75L18.335 82.0834L21.6683 69.5834L20.835 68.3334C10.835 51.6667 15.835 30.8334 32.085 20.4167C48.335 10.0001 69.1683 15.4167 79.1683 31.2501C89.1683 47.5001 84.585 68.75 68.335 78.75Z" fill="white"/>
</svg>
